<svg width="245" height="38" viewBox="0 0 245 38" fill="none" xmlns="http://www.w3.org/2000/svg">
<g clip-path="url(#clip0_63_4543)">
<path d="M220.139 8.58883L211.539 26.0338L210.26 8.5928H202.144L205.43 37.5752H212.598L221.435 19.9131L223.567 37.5686H230.787L245.001 8.58618H237.043L229.137 26.0868L227.049 8.58883H220.139Z" fill="#F78B00"/>
<path d="M168.211 0L161.22 23.129L151.209 0H144.025L132.736 37.5633H140.614L147.586 13.6839L158.18 37.5646H164.97L176.091 0H168.211Z" fill="#F78B00"/>
<mask id="mask0_63_4543" style="mask-type:luminance" maskUnits="userSpaceOnUse" x="0" y="0" width="245" height="38">
<path d="M245 0H0V38H245V0Z" fill="white"/>
</mask>
<g mask="url(#mask0_63_4543)">
<path d="M184.632 38.0013C176.028 38.0013 170.43 31.4002 171.402 23.1369L171.415 23.0297C172.008 18.851 174.04 15.0348 177.135 12.2836C180.23 9.5324 184.181 8.03138 188.261 8.05684C196.865 8.05684 202.463 14.6566 201.49 22.9212L201.478 23.0284C200.884 27.207 198.853 31.0231 195.758 33.7741C192.662 36.525 188.711 38.0258 184.632 38M193.707 23.0284C194.207 18.7935 191.688 15.088 187.334 15.088C185.281 15.1118 183.309 15.928 181.806 17.377C180.303 18.826 179.376 20.8034 179.207 22.9225L179.194 23.0297C178.696 27.2646 181.214 30.9701 185.568 30.9701C187.621 30.9464 189.592 30.1302 191.095 28.6812C192.599 27.2322 193.525 25.2547 193.695 23.1356L193.707 23.0284Z" fill="#F78B00"/>
<path d="M53.4515 37.5633L42.8576 13.6839L35.8811 37.5633H28.0034L39.2134 0H46.4788L56.4886 23.129L63.4767 0H71.3544L60.2415 37.5646L53.4515 37.5633Z" fill="#24272A"/>
<path d="M79.8993 38.0013C71.2956 38.0013 65.697 31.4002 66.6697 23.1369L66.6825 23.0297C67.2756 18.8509 69.3068 15.0345 72.4022 12.2833C75.4976 9.53203 79.4487 8.03111 83.5282 8.05684C92.1319 8.05684 97.7306 14.6566 96.7578 22.9212L96.745 23.0284C96.1517 27.207 94.1203 31.0231 91.025 33.7741C87.9296 36.525 83.9786 38.0258 79.8993 38M88.9747 23.0284C89.4745 18.7936 86.9551 15.088 82.6015 15.088C80.5479 15.1118 78.5767 15.928 77.0736 17.377C75.5706 18.826 74.6437 20.8035 74.4745 22.9226L74.4617 23.0297C73.9632 27.2646 76.4813 30.9701 80.835 30.9701C82.8886 30.9464 84.8598 30.1302 86.3628 28.6812C87.8659 27.2322 88.7927 25.2547 88.9619 23.1356L88.9747 23.0284Z" fill="#24272A"/>
<path d="M129.151 37.5712H122.05L116.712 19.9144L111.269 37.5698H104.221L95.6688 8.58747H103.651L108.11 26.0285L113.35 8.5835H120.14L125.427 26.0814L129.988 8.58747H137.803L129.151 37.5712Z" fill="#24272A"/>
<path d="M18.6378 8.60474C17.7149 8.60474 16.8297 8.98433 16.1771 9.66001C15.5245 10.3357 15.1578 11.2521 15.1578 12.2077C15.1578 13.1632 15.5245 14.0797 16.1771 14.7553C16.8297 15.431 17.7149 15.8106 18.6378 15.8106H30.8589L33.014 8.60474H18.6378Z" fill="#F78B00"/>
<path d="M3.48186 19.4738C2.55892 19.4738 1.67377 19.8534 1.02115 20.529C0.368531 21.2047 0.00189209 22.1211 0.00189209 23.0767C0.00189209 24.0323 0.368531 24.9487 1.02115 25.6244C1.67377 26.3001 2.55892 26.6797 3.48186 26.6797H27.6096L29.7609 19.4738H3.48186Z" fill="#F78B00"/>
<path d="M7.40474 30.3416C6.4818 30.3416 5.59665 30.7211 4.94403 31.3968C4.29141 32.0725 3.92477 32.9889 3.92477 33.9445C3.92477 34.9001 4.29141 35.8165 4.94403 36.4922C5.59665 37.1678 6.4818 37.5474 7.40474 37.5474H24.3693L26.5206 30.3416H7.40474Z" fill="#F78B00"/>
</g>
</g>
<defs>
<clipPath id="clip0_63_4543">
<rect width="245" height="38" fill="white"/>
</clipPath>
</defs>
</svg>
